# xmcd
#
# Track frame offsets:
#        150
#        18457
#        33927
#        56784
#        73166
#        90891
#        103913
#        120396
#        135132
#        153080
#
# Disc length: 2384 seconds
#
# Revision: 2
# Processed by: cddbd v1.5.2PL0 Copyright (c) Steve Scherf et al.
# Submitted via: ExactAudioCopy v1.0b3
#
DISCID=74094e0a
DTITLE=Avril Lavigne / Essential Mixes
DYEAR=2010
DGENRE=Pop
TTITLE0=Complicated (The Matrix Mix)
TTITLE1=Girlfriend (Dr. Luke Mix Feat. Lil Mama)
TTITLE2=Hot (Wolfadelic Remix)
TTITLE3=Sk8ter Boi (Live Acoustic Version)
TTITLE4=My Happy Ending (Live Acoustic Version)
TTITLE5=Take Me Away (Live Acoustic Version)
TTITLE6=Nobody's Home (Live Acoustic Version)
TTITLE7=He Wasn't (Live Acoustic Version)
TTITLE8=When You're Gone (Acoustic Version)
TTITLE9=Girlfriend (Junkie XL Extended Mix)
EXTD=
EXTT0=
EXTT1=
EXTT2=
EXTT3=
EXTT4=
EXTT5=
EXTT6=
EXTT7=
EXTT8=
EXTT9=
PLAYORDER=
.
